<?xml version="1.0" encoding="UTF-8"?>
<svg id="Layer_1" data-name="Layer 1" xmlns="http://www.w3.org/2000/svg" viewBox="0 0 1217.17 768">
  <defs>
    
  </defs>
  <path fill="#000" d="M1.72,752.14L0,18.81C-.02,8.25,5.87,1.91,16.63,1.89l190.39-.63L1198.94,0c10.16-.01,17.13,4.99,17.16,15.5l1.7,733.3c.03,10.96-7.13,16.3-17.15,16.32l-964.86,1.69-201.07.15-18.18.1c-8.25,0-14.78-6.39-14.8-14.92ZM1010.01,83.11l-107.74.28.25,503.34c4.37,64.6,59.66,113.35,123.11,109.32,62.62-3.97,111.79-57.16,109.11-121.47l-1.3-491.86-107.81.23,1.28,498.24c-1.45,5.52-4.76,7.55-9.36,7.1-3.88-.38-6.83-3.49-7.27-8.79l-.26-496.39ZM654.37,587.27c.59,65.03,58.71,111.95,120.32,109.39,62.75-2.61,111.3-55,111.13-118.46l-.31-113c-.13-47.48-22.81-92.11-64.53-115.24l-49.11-27.23c-7.34-4.07-11.19-11.85-11.21-20.23l-.22-111.36c0-4.61,3.99-8.47,7.9-9.01,2.99-.42,8.69,3.4,8.7,7.5l.25,111.12c.35,2.73,3.68,6.73,6.51,6.72l101.32-.17-.61-118.13c-.33-62.68-50.09-112.35-111.46-114.6-60.05-2.2-113.83,42.62-119.21,104.83-3.39,39.26-.03,77.88-1.08,118.1-1.27,48.73,22.14,94.58,64.72,118.15l49.19,27.23c6.66,3.69,10.82,11.22,10.85,19.03l.4,118.58c.02,4.55-4.11,8.43-8.02,8.64-2.99.16-8.66-3.74-8.67-7.76l-.29-117.8c.08-3.27-3.23-7.52-6.82-7.51l-100.92.34,1.18,130.88ZM84.51,686.97l275.79-.18-.62-299.58c0-2.89,3.61-3.98,4.4-2.91l2.37,3.21,93.17,300.3,175.51-1.4-1.29-602.61-237.26.54.59,295.92c-1.11,2.16-1.93,3.71-2.52,4.67s-3.75-2-4.06-3.19l-77.52-297.18-230.27-.11,1.71,602.5Z"></path>
</svg>